<svg width="902" height="512" viewBox="0 0 902 512" fill="none" xmlns="http://www.w3.org/2000/svg">
<path d="M147.94 231.639V323.102L227.472 369.331L307.003 323.102V231.639L227.472 185.411L147.94 231.639Z" fill="#0E74BC"/>
<path d="M545.101 458.308V585.561L655.452 649.684L765.802 585.561V458.308L655.452 394.682L545.101 458.308Z" fill="#0E74BC"/>
<path d="M404.43 223.686V300.236L470.54 338.512L537.148 300.236V223.686L470.54 185.411L404.43 223.686Z" fill="#59595B"/>
<path d="M38.0868 386.728C54.0093 386.728 66.9171 373.821 66.9171 357.898C66.9171 341.975 54.0093 329.067 38.0868 329.067C22.1643 329.067 9.25659 341.975 9.25659 357.898C9.25659 373.821 22.1643 386.728 38.0868 386.728Z" fill="#0E74BC"/>
<path d="M294.577 126.258C310.499 126.258 323.407 113.35 323.407 97.4277C323.407 81.505 310.499 68.597 294.577 68.597C278.654 68.597 265.746 81.505 265.746 97.4277C265.746 113.35 278.654 126.258 294.577 126.258Z" fill="#0E74BC"/>
<path d="M655.452 262.458C668.08 262.458 678.317 252.221 678.317 239.593C678.317 226.964 668.08 216.727 655.452 216.727C642.823 216.727 632.586 226.964 632.586 239.593C632.586 252.221 642.823 262.458 655.452 262.458Z" fill="#0E74BC"/>
<path d="M470.54 409.594C483.169 409.594 493.406 399.357 493.406 386.729C493.406 374.1 483.169 363.863 470.54 363.863C457.912 363.863 447.675 374.1 447.675 386.729C447.675 399.357 457.912 409.594 470.54 409.594Z" fill="#59595B"/>
<path d="M725.042 337.517C743.71 337.517 758.843 322.384 758.843 303.716C758.843 285.048 743.71 269.915 725.042 269.915C706.374 269.915 691.241 285.048 691.241 303.716C691.241 322.384 706.374 337.517 725.042 337.517Z" fill="#59595B"/>
<path d="M66.9171 216.23C83.6632 216.23 97.2385 202.654 97.2385 185.908C97.2385 169.162 83.6632 155.586 66.9171 155.586C50.171 155.586 36.5956 169.162 36.5956 185.908C36.5956 202.654 50.171 216.23 66.9171 216.23Z" fill="#59595B"/>
</svg>
