<svg width="12" height="12" viewBox="0 0 12 12" fill="none" xmlns="http://www.w3.org/2000/svg">
<path d="M9.84016 6.1977C9.84016 5.9577 9.65663 5.77417 9.41663 5.77417C9.17663 5.77417 8.9931 5.9577 8.9931 6.1977C8.9931 7.84946 7.65192 9.19064 6.00016 9.19064C4.34839 9.19064 3.00722 7.84946 3.00722 6.1977C3.00722 5.9577 2.82369 5.77417 2.58369 5.77417C2.34369 5.77417 2.16016 5.9577 2.16016 6.1977C2.16016 8.16005 3.62839 9.81182 5.57663 10.0236V11.153H4.0378C3.7978 11.153 3.61427 11.3365 3.61427 11.5765C3.61427 11.8165 3.7978 12.0001 4.0378 12.0001H7.96251C8.20251 12.0001 8.38604 11.8165 8.38604 11.5765C8.38604 11.3365 8.20251 11.153 7.96251 11.153H6.42369V10.0236C8.37192 9.81182 9.84016 8.16005 9.84016 6.1977Z" fill="white"/>
<path d="M6.00023 0C4.7014 0 3.64258 1.05882 3.64258 2.35765V6.18353C3.64258 7.49647 4.7014 8.54118 6.00023 8.55529C7.29905 8.55529 8.35787 7.49647 8.35787 6.19765V2.35765C8.35787 1.05882 7.29905 0 6.00023 0Z" fill="white"/>
</svg>
