<svg width="88" height="32" viewBox="0 0 88 32" fill="none" xmlns="http://www.w3.org/2000/svg">
<path d="M29.9213 17.0658L10.5309 27.7374C9.46789 28.3224 8.13187 27.9349 7.54683 26.8719L1.63789 16.1352C1.05285 15.0722 1.44033 13.7362 2.50336 13.1511L21.8937 2.47962C22.9567 1.89458 24.2928 2.28207 24.8778 3.34509L30.7868 14.0818C31.3718 15.1448 30.9843 16.4808 29.9213 17.0658Z" fill="#FEBC1F"/>
<path d="M29.4975 16.2964L10.1071 26.9679C9.04406 27.5529 7.70804 27.1655 7.12301 26.1024L1.21406 15.3658C0.629018 14.3027 1.0165 12.9667 2.07953 12.3817L21.4699 1.71015C22.5329 1.12511 23.8689 1.5126 24.454 2.57562L30.3629 13.3123C30.948 14.3753 30.5605 15.7113 29.4975 16.2964Z" fill="#FFD475"/>
<path d="M21.4699 1.71015L2.07953 12.3817C1.0165 12.9667 0.629025 14.3028 1.21405 15.3658L7.12301 26.1024C7.12301 26.1024 1.61704 15.5726 23.4302 1.63381C22.8223 1.36064 22.0988 1.36403 21.4699 1.71015Z" fill="#FEBC1F"/>
<path d="M2.95045 16.6824L3.69245 18.0307C3.87949 18.3705 4.30662 18.4944 4.64647 18.3073L25.1019 7.04966C25.4418 6.86262 25.5656 6.43549 25.3786 6.09564L24.6366 4.74741C24.4496 4.40755 24.0224 4.28367 23.6826 4.47071L3.22714 15.7284C2.88729 15.9154 2.76341 16.3426 2.95045 16.6824Z" fill="#1D2943"/>
<path d="M2.74537 16.3088L3.48737 17.657C3.67441 17.9969 4.10154 18.1207 4.44139 17.9337L24.8968 6.676C25.2367 6.48897 25.3606 6.06184 25.1735 5.72198L24.4315 4.37375C24.2445 4.0339 23.8174 3.91002 23.4775 4.09705L3.02206 15.3547C2.68221 15.5418 2.55833 15.9689 2.74537 16.3088Z" fill="#4C5C75"/>
<path d="M26.4149 30.5625L4.28199 30.5625C3.06861 30.5625 2.08497 29.5788 2.08496 28.3654L2.08496 16.1102C2.08496 14.8968 3.0686 13.9132 4.28198 13.9132L26.4149 13.9131C27.6283 13.9131 28.612 14.8968 28.612 16.1102L28.612 28.3654C28.612 29.5788 27.6283 30.5625 26.4149 30.5625Z" fill="#5094FF"/>
<path d="M4.28198 29.6842L26.4149 29.6842C27.6283 29.6842 28.612 28.7005 28.612 27.4871L28.612 15.2319C28.612 14.0185 27.6283 13.0349 26.4149 13.0349L4.28199 13.0349C3.06861 13.0349 2.08497 14.0185 2.08496 15.2319L2.08496 27.4871C2.08496 28.7005 3.0686 29.6842 4.28198 29.6842Z" fill="#57B3FE"/>
<path d="M4.2816 13.0349L26.4145 13.0349C27.6279 13.0349 28.6116 14.0185 28.6116 15.2319L28.6116 27.4872C28.6116 27.4872 28.3582 15.6074 2.52734 13.9132C2.92826 13.3807 3.56373 13.0349 4.2816 13.0349Z" fill="#5094FF"/>
<path d="M26.8907 25.741V26.082H26.8862C26.8951 26.5431 26.5104 26.9304 26.0468 26.9304L23.8176 26.9304C23.3622 26.9304 22.9692 26.5502 22.9782 26.082H22.9736V25.741H23.0281C23.1597 25.4097 23.5182 25.1829 23.8947 25.1829L25.9696 25.1829C26.3462 25.1829 26.7047 25.4097 26.8363 25.741H26.8907Z" fill="#E3E7F0"/>
<path d="M26.0446 26.592L23.8898 26.5921C23.4556 26.5921 23.0453 26.2973 22.9844 25.8674C22.9102 25.344 23.315 24.8949 23.8242 24.8949L25.9705 24.8948C26.4309 24.8948 26.8597 25.2289 26.8877 25.6885C26.9188 26.1986 26.5155 26.592 26.0446 26.592Z" fill="white"/>
<path d="M20.5021 25.741V26.082H20.4975C20.5064 26.5431 20.1218 26.9304 19.6581 26.9304L17.4289 26.9304C16.9735 26.9304 16.5805 26.5502 16.5895 26.082H16.585V25.741H16.6394C16.771 25.4097 17.1295 25.1829 17.506 25.1829L19.5809 25.1829C19.9575 25.1829 20.316 25.4097 20.4476 25.741H20.5021Z" fill="#E3E7F0"/>
<path d="M19.6559 26.592L17.5011 26.5921C17.0669 26.5921 16.6567 26.2973 16.5957 25.8674C16.5215 25.344 16.9263 24.8949 17.4355 24.8949L19.5819 24.8948C20.0423 24.8948 20.471 25.2289 20.499 25.6885C20.5302 26.1986 20.1268 26.592 19.6559 26.592Z" fill="white"/>
<path d="M14.1124 25.741V26.082H14.1079C14.1168 26.5431 13.7321 26.9304 13.2684 26.9304H11.0393C10.5838 26.9304 10.1908 26.5502 10.1999 26.082H10.1953V25.741H10.2498C10.3814 25.4097 10.7399 25.1829 11.1164 25.1829H13.1913C13.5679 25.1829 13.9264 25.4097 14.058 25.741H14.1124Z" fill="#E3E7F0"/>
<path d="M13.2663 26.592L11.1114 26.5921C10.6773 26.5921 10.267 26.2973 10.2061 25.8674C10.1319 25.344 10.5367 24.8949 11.0459 24.8949L13.1922 24.8948C13.6526 24.8948 14.0814 25.2289 14.1094 25.6885C14.1405 26.1986 13.7372 26.592 13.2663 26.592Z" fill="white"/>
<path d="M7.72375 25.741V26.082H7.71921C7.72809 26.5431 7.34346 26.9304 6.87977 26.9304L4.65062 26.9304C4.19517 26.9304 3.80217 26.5502 3.81118 26.082H3.80664V25.741H3.86109C3.9927 25.4097 4.35118 25.1829 4.72773 25.1829L6.80261 25.1829C7.17921 25.1829 7.5377 25.4097 7.66931 25.741H7.72375Z" fill="#E3E7F0"/>
<path d="M6.87761 26.592L4.72277 26.5921C4.28862 26.5921 3.87835 26.2973 3.8174 25.8674C3.74318 25.344 4.14803 24.8949 4.65719 24.8949L6.80355 24.8948C7.26394 24.8948 7.69269 25.2289 7.72073 25.6885C7.75185 26.1986 7.34851 26.592 6.87761 26.592Z" fill="white"/>
<path d="M3.80859 16.9062L3.80859 18.9562C3.80859 19.473 4.22752 19.8919 4.74429 19.8919L8.58302 19.8919C9.09979 19.8919 9.51871 19.473 9.51871 18.9562L9.51871 16.9062C9.51871 16.3894 9.09979 15.9705 8.58302 15.9705L4.74429 15.9705C4.22752 15.9705 3.80859 16.3894 3.80859 16.9062Z" fill="#FEBC1F"/>
<path d="M3.80859 16.5867L3.80859 18.6368C3.80859 19.1536 4.22752 19.5725 4.74429 19.5725L8.58302 19.5725C9.09979 19.5725 9.51871 19.1535 9.51871 18.6368V16.5867C9.51871 16.0699 9.09979 15.651 8.58302 15.651L4.74429 15.651C4.22752 15.651 3.80859 16.0699 3.80859 16.5867Z" fill="#FFD475"/>
<path d="M6.56421 17.3906V15.651H6.11977V17.3906H3.80859V17.835H5.07304V19.5725H5.51748V17.835H7.51865V19.5725H7.96307V17.835H9.51872V17.3906H6.56421Z" fill="#FEBC1F"/>
<path d="M26.4842 18.9254L23.982 18.9254C23.7735 18.9254 23.5765 18.7839 23.5472 18.5774C23.5116 18.3261 23.706 18.1104 23.9505 18.1104L26.4487 18.1104C26.6698 18.1103 26.8757 18.2708 26.8891 18.4915C26.9041 18.7365 26.7104 18.9254 26.4842 18.9254Z" fill="white"/>
<path d="M26.4845 17.1807L22.0914 17.1807C21.8829 17.1807 21.6858 17.0392 21.6566 16.8327C21.6209 16.5814 21.8154 16.3657 22.0599 16.3657L26.4489 16.3657C26.67 16.3657 26.8759 16.5261 26.8894 16.7468C26.9043 16.9918 26.7106 17.1807 26.4845 17.1807Z" fill="white"/>
<path d="M25.8174 7.68018C26.8633 9.02232 27.7181 10.4809 28.3731 12.0515C27.3256 10.7105 26.4739 9.24996 25.8174 7.68018Z" fill="white"/>
<path d="M6.32715 12.0506C7.85133 10.8843 9.49279 9.9085 11.248 9.13177C9.72475 10.2996 8.08139 11.2722 6.32715 12.0506Z" fill="white"/>
<path d="M18.9141 28.5811C20.8199 28.3557 22.7294 28.3537 24.6352 28.5811C22.7294 28.8085 20.8199 28.8066 18.9141 28.5811Z" fill="white"/>
<path d="M50.52 23.16C49.0533 23.16 47.82 22.86 46.82 22.26C45.82 21.6467 45.0667 20.8 44.56 19.72C44.0533 18.64 43.8 17.3867 43.8 15.96C43.8 14.5333 44.06 13.2733 44.58 12.18C45.1 11.0867 45.86 10.2333 46.86 9.62C47.86 8.99333 49.08 8.68 50.52 8.68C51.5867 8.68 52.5267 8.86 53.34 9.22C54.1533 9.58 54.8133 10.0933 55.32 10.76C55.84 11.4133 56.1733 12.22 56.32 13.18H53.9C53.7133 12.5 53.3333 11.9667 52.76 11.58C52.1867 11.1933 51.44 11 50.52 11C49.52 11 48.7133 11.2333 48.1 11.7C47.4867 12.1667 47.04 12.7667 46.76 13.5C46.4933 14.2333 46.36 15.02 46.36 15.86C46.36 16.7267 46.5 17.54 46.78 18.3C47.0733 19.06 47.5333 19.6733 48.16 20.14C48.7867 20.6067 49.5933 20.84 50.58 20.84C51.1933 20.84 51.7267 20.7533 52.18 20.58C52.6467 20.4067 53.0333 20.16 53.34 19.84C53.66 19.5067 53.88 19.12 54 18.68H56.54C56.38 19.6267 56.02 20.4333 55.46 21.1C54.9133 21.7667 54.2133 22.28 53.36 22.64C52.52 22.9867 51.5733 23.16 50.52 23.16ZM61.5588 23.14C61.0654 23.14 60.5988 23.0733 60.1588 22.94C59.7188 22.8067 59.3254 22.6133 58.9788 22.36C58.6321 22.0933 58.3521 21.7667 58.1388 21.38C57.9388 20.98 57.8388 20.5133 57.8388 19.98C57.8388 19.3 57.9721 18.7467 58.2388 18.32C58.5054 17.88 58.8654 17.5467 59.3188 17.32C59.7854 17.0933 60.3121 16.94 60.8988 16.86C61.4854 16.7667 62.0988 16.72 62.7388 16.72H64.7988C64.7988 16.2533 64.7254 15.8533 64.5788 15.52C64.4321 15.1733 64.1988 14.9 63.8788 14.7C63.5721 14.5 63.1721 14.4 62.6788 14.4C62.3588 14.4 62.0588 14.44 61.7788 14.52C61.5121 14.5867 61.2788 14.7 61.0788 14.86C60.8921 15.0067 60.7588 15.2 60.6788 15.44H58.1788C58.2721 14.8933 58.4588 14.4267 58.7388 14.04C59.0321 13.64 59.3854 13.3133 59.7988 13.06C60.2254 12.8067 60.6921 12.62 61.1988 12.5C61.7054 12.3667 62.2188 12.3 62.7388 12.3C64.2721 12.3 65.3854 12.74 66.0788 13.62C66.7854 14.5 67.1388 15.7333 67.1388 17.32V23H64.9788L64.9188 21.64C64.6121 22.0933 64.2454 22.4267 63.8188 22.64C63.3921 22.8533 62.9788 22.9867 62.5788 23.04C62.1788 23.1067 61.8388 23.14 61.5588 23.14ZM62.0388 21.16C62.5721 21.16 63.0454 21.06 63.4588 20.86C63.8721 20.66 64.1988 20.38 64.4388 20.02C64.6921 19.66 64.8188 19.2467 64.8188 18.78V18.44H62.8988C62.5788 18.44 62.2588 18.4533 61.9388 18.48C61.6321 18.4933 61.3521 18.5467 61.0988 18.64C60.8454 18.72 60.6388 18.8467 60.4788 19.02C60.3321 19.1933 60.2588 19.44 60.2588 19.76C60.2588 20.08 60.3388 20.34 60.4988 20.54C60.6721 20.74 60.8921 20.8933 61.1588 21C61.4388 21.1067 61.7321 21.16 62.0388 21.16ZM69.2683 23V12.46H71.4883L71.6283 13.84C71.8949 13.44 72.1949 13.1333 72.5283 12.92C72.8749 12.6933 73.2416 12.5333 73.6283 12.44C74.0283 12.3467 74.4283 12.3 74.8283 12.3C74.9749 12.3 75.1083 12.3 75.2283 12.3C75.3616 12.3 75.4683 12.3067 75.5483 12.32V14.64H74.9083C74.2149 14.64 73.6283 14.7733 73.1483 15.04C72.6683 15.3067 72.3083 15.6867 72.0683 16.18C71.8283 16.6733 71.7083 17.28 71.7083 18V23H69.2683ZM80.8878 23.14C79.8211 23.14 78.9411 22.9 78.2478 22.42C77.5545 21.9267 77.0345 21.2733 76.6878 20.46C76.3545 19.6467 76.1878 18.74 76.1878 17.74C76.1878 16.7 76.3678 15.7733 76.7278 14.96C77.0878 14.1333 77.6278 13.4867 78.3478 13.02C79.0678 12.54 79.9678 12.3 81.0478 12.3C81.4478 12.3 81.8345 12.3467 82.2078 12.44C82.5945 12.52 82.9545 12.6533 83.2878 12.84C83.6345 13.0133 83.9211 13.2467 84.1478 13.54V8.86H86.5878V23H84.2278L84.1878 21.68C83.9345 22.0133 83.6345 22.2867 83.2878 22.5C82.9545 22.7133 82.5811 22.8733 82.1678 22.98C81.7545 23.0867 81.3278 23.14 80.8878 23.14ZM81.3478 20.94C81.9878 20.94 82.5145 20.7933 82.9278 20.5C83.3411 20.1933 83.6478 19.7933 83.8478 19.3C84.0611 18.7933 84.1678 18.26 84.1678 17.7C84.1678 17.1133 84.0611 16.58 83.8478 16.1C83.6478 15.62 83.3411 15.2333 82.9278 14.94C82.5145 14.6467 81.9878 14.5 81.3478 14.5C80.6678 14.5 80.1278 14.6533 79.7278 14.96C79.3411 15.2667 79.0545 15.6733 78.8678 16.18C78.6945 16.6733 78.6078 17.2067 78.6078 17.78C78.6078 18.2067 78.6545 18.6133 78.7478 19C78.8545 19.3733 79.0145 19.7067 79.2278 20C79.4411 20.2933 79.7211 20.5267 80.0678 20.7C80.4145 20.86 80.8411 20.94 81.3478 20.94Z" fill="#0E74BC"/>
</svg>
